<svg width="25" height="25" viewBox="0 0 25 25" fill="none" xmlns="http://www.w3.org/2000/svg">
<path d="M18.1141 22.1976C17.0254 23.253 15.8366 23.0864 14.6923 22.5864C13.4814 22.0754 12.3704 22.0532 11.0928 22.5864C9.493 23.2752 8.64866 23.0752 7.69323 22.1976C2.27169 16.6094 3.07159 8.09936 9.22637 7.78828C10.7262 7.86605 11.7705 8.6104 12.6482 8.67706C13.9591 8.41043 15.2145 7.64386 16.6143 7.74385C18.2919 7.87716 19.5584 8.54374 20.3916 9.74359C16.9254 11.8211 17.7475 16.3872 20.9249 17.6648C20.2916 19.3313 19.4695 20.9866 18.103 22.2087L18.1141 22.1976ZM12.5371 7.72163C12.3704 5.24416 14.3813 3.19997 16.6921 3C17.0143 5.8663 14.0924 7.99937 12.5371 7.72163Z" fill="black"/>
</svg>
