<svg width="16" height="16" viewBox="0 0 16 16" fill="none" xmlns="http://www.w3.org/2000/svg">
<path d="M5.97424 0.515628C6.40756 0.405632 6.69133 0.921598 6.45471 1.29492C5.83626 2.26906 5.50911 3.39983 5.51038 4.55371C5.5105 7.97102 8.33656 10.7411 11.8239 10.7412C12.7134 10.7427 13.5942 10.5588 14.4088 10.2012C14.8161 10.0215 15.301 10.3658 15.1315 10.7705C13.9715 13.5455 11.1881 15.5 7.93811 15.5C3.64568 15.4999 0.166626 12.0905 0.166626 7.88477C0.166799 4.3441 2.63353 1.3681 5.97424 0.515628ZM14.4069 0.58594C14.8493 0.291197 15.3756 0.818167 15.0807 1.25977L14.5563 2.04688C14.3433 2.36615 14.2292 2.74123 14.2291 3.125C14.2291 3.5088 14.3433 3.88383 14.5563 4.20313L15.0807 4.99121C15.3755 5.4328 14.8495 5.95878 14.4078 5.66407L13.6198 5.13965C13.3005 4.92668 12.9254 4.8125 12.5416 4.8125C12.1578 4.8125 11.7828 4.92668 11.4635 5.13965L10.6764 5.66407C10.2348 5.95895 9.70767 5.43283 10.0016 4.99121L10.527 4.20313C10.7398 3.88391 10.8531 3.50865 10.8531 3.125C10.8531 2.74132 10.7399 2.3661 10.527 2.04688L10.0016 1.25977C9.70745 0.818208 10.2338 0.291376 10.6754 0.58594L11.4635 1.11133C11.7827 1.32418 12.1579 1.4375 12.5416 1.4375C12.9253 1.4375 13.3005 1.32418 13.6198 1.11133L14.4069 0.58594Z" fill="#828FA3"/>
</svg>
