<svg width="20" height="21" viewBox="0 0 20 21" fill="none" xmlns="http://www.w3.org/2000/svg">
<g clip-path="url(#clip0_4003_2309)">
<path d="M10.0002 1C8.6544 1 7.32176 1.26508 6.07838 1.7801C4.835 2.29513 3.70524 3.05001 2.7536 4.00165C0.831678 5.92357 -0.248047 8.53026 -0.248047 11.2483C-0.248047 15.778 2.69321 19.6211 6.76177 20.9841C7.27418 21.0661 7.43815 20.7484 7.43815 20.4717V18.7398C4.59938 19.3547 3.99474 17.3665 3.99474 17.3665C3.52332 16.1777 2.85718 15.86 2.85718 15.86C1.92459 15.2246 2.92892 15.2451 2.92892 15.2451C3.95374 15.3168 4.4969 16.3007 4.4969 16.3007C5.3885 17.8584 6.895 17.3972 7.47915 17.1513C7.57138 16.4851 7.83784 16.0342 8.12479 15.778C5.84967 15.5218 3.46183 14.6404 3.46183 10.7359C3.46183 9.5983 3.85126 8.6862 4.5174 7.95858C4.41492 7.70237 4.05623 6.63655 4.61988 5.25303C4.61988 5.25303 5.48074 4.97633 7.43815 6.29836C8.24777 6.07289 9.12912 5.96016 10.0002 5.96016C10.8713 5.96016 11.7527 6.07289 12.5623 6.29836C14.5197 4.97633 15.3806 5.25303 15.3806 5.25303C15.9442 6.63655 15.5855 7.70237 15.483 7.95858C16.1492 8.6862 16.5386 9.5983 16.5386 10.7359C16.5386 14.6507 14.1405 15.5115 11.8552 15.7678C12.2241 16.0855 12.5623 16.7106 12.5623 17.6637V20.4717C12.5623 20.7484 12.7263 21.0764 13.2489 20.9841C17.3175 19.6109 20.2485 15.778 20.2485 11.2483C20.2485 9.90245 19.9834 8.5698 19.4684 7.32643C18.9534 6.08305 18.1985 4.95329 17.2468 4.00165C16.2952 3.05001 15.1654 2.29513 13.9221 1.7801C12.6787 1.26508 11.346 1 10.0002 1Z" fill="black"/>
</g>
<defs>
<clipPath id="clip0_4003_2309">
<rect width="20" height="20" fill="white" transform="translate(0 0.5)"/>
</clipPath>
</defs>
</svg>
