<svg width="20" height="21" viewBox="0 0 20 21" fill="none" xmlns="http://www.w3.org/2000/svg">
<g clip-path="url(#clip0_4003_9306)">
<path d="M6.96721 1.15827C4.9689 1.8515 3.24556 3.16728 2.05032 4.91233C0.855082 6.65739 0.250946 8.73974 0.326651 10.8535C0.402355 12.9673 1.15391 15.0011 2.47092 16.6562C3.78794 18.3113 5.60099 19.5004 7.64377 20.0489C9.2999 20.4762 11.035 20.495 12.7 20.1036C14.2083 19.7648 15.6028 19.0401 16.7469 18.0005C17.9376 16.8854 18.802 15.4668 19.2469 13.8973C19.7305 12.1906 19.8166 10.3957 19.4985 8.65045H10.1985V12.5083H15.5844C15.4768 13.1236 15.2461 13.7108 14.9062 14.2349C14.5663 14.7589 14.1242 15.2091 13.6063 15.5583C12.9486 15.9933 12.2072 16.286 11.4297 16.4176C10.6499 16.5626 9.85011 16.5626 9.07033 16.4176C8.28 16.2542 7.53236 15.928 6.87502 15.4598C5.819 14.7123 5.02608 13.6503 4.6094 12.4255C4.18567 11.1776 4.18567 9.82484 4.6094 8.57702C4.906 7.70235 5.39632 6.90598 6.04377 6.24733C6.7847 5.47975 7.72273 4.93108 8.75495 4.66151C9.78718 4.39195 10.8737 4.41191 11.8953 4.7192C12.6934 4.96419 13.4232 5.39223 14.0266 5.9692C14.6339 5.36504 15.2401 4.75931 15.8453 4.15202C16.1578 3.82545 16.4985 3.51452 16.8063 3.18014C15.8853 2.32307 14.8042 1.65617 13.625 1.21764C11.4777 0.437939 9.12811 0.416985 6.96721 1.15827Z" fill="white"/>
<path d="M6.96709 1.15805C9.12781 0.416264 11.4774 0.436666 13.6249 1.21586C14.8043 1.65737 15.8849 2.32748 16.8046 3.18774C16.4921 3.52211 16.1624 3.83461 15.8437 4.15961C15.2374 4.76482 14.6317 5.36795 14.0265 5.96899C13.4231 5.39201 12.6933 4.96397 11.8952 4.71899C10.8739 4.41061 9.78743 4.3895 8.75493 4.65796C7.72243 4.92642 6.78383 5.47408 6.04209 6.24086C5.39464 6.89951 4.90432 7.69589 4.60771 8.57055L1.36865 6.06274C2.52804 3.76361 4.53545 2.00496 6.96709 1.15805Z" fill="#E33629"/>
<path d="M0.509175 8.54688C0.683271 7.68405 0.972306 6.84848 1.36855 6.0625L4.60761 8.57656C4.18389 9.82438 4.18389 11.1772 4.60761 12.425C3.52845 13.2583 2.44876 14.0958 1.36855 14.9375C0.376598 12.963 0.07407 10.7133 0.509175 8.54688Z" fill="#F8BD00"/>
<path d="M10.1984 8.64844H19.4984C19.8166 10.3936 19.7305 12.1885 19.2469 13.8953C18.8019 15.4648 17.9376 16.8834 16.7469 17.9984C15.7016 17.1828 14.6516 16.3734 13.6063 15.5578C14.1245 15.2082 14.5668 14.7576 14.9067 14.233C15.2467 13.7084 15.4771 13.1205 15.5844 12.5047H10.1984C10.1969 11.2203 10.1984 9.93437 10.1984 8.64844Z" fill="#587DBD"/>
<path d="M1.36719 14.9373C2.4474 14.104 3.52708 13.2665 4.60625 12.4248C5.02376 13.6501 5.81782 14.7121 6.875 15.4592C7.53439 15.9252 8.28364 16.2488 9.075 16.4092C9.85478 16.5542 10.6546 16.5542 11.4344 16.4092C12.2119 16.2776 12.9533 15.9849 13.6109 15.5498C14.6562 16.3654 15.7063 17.1748 16.7516 17.9904C15.6076 19.0306 14.2132 19.7559 12.7047 20.0951C11.0397 20.4865 9.30457 20.4678 7.64844 20.0404C6.3386 19.6907 5.11512 19.0742 4.05469 18.2295C2.93228 17.3384 2.01556 16.2154 1.36719 14.9373Z" fill="#319F43"/>
</g>
<defs>
<clipPath id="clip0_4003_9306">
<rect width="20" height="20" fill="white" transform="translate(0 0.5)"/>
</clipPath>
</defs>
</svg>
