<svg width="16" height="16" viewBox="0 0 16 16" fill="none" xmlns="http://www.w3.org/2000/svg">
<rect width="16" height="16" fill="#4A4A4A"/>
<g id="Desktop - Light">
<path d="M-3626 -309C-3626 -310.105 -3625.1 -311 -3624 -311H17229C17230.1 -311 17231 -310.105 17231 -309V931C17231 932.105 17230.1 933 17229 933H-3624C-3625.1 933 -3626 932.105 -3626 931V-309Z" fill="#6D6D6D"/>
<path d="M-3624 -311V-310H17229V-311V-312H-3624V-311ZM17231 -309H17230V931H17231H17232V-309H17231ZM17229 933V932H-3624V933V934H17229V933ZM-3626 931H-3625V-309H-3626H-3627V931H-3626ZM-3624 933V932C-3624.55 932 -3625 931.552 -3625 931H-3626H-3627C-3627 932.657 -3625.66 934 -3624 934V933ZM17231 931H17230C17230 931.552 17229.6 932 17229 932V933V934C17230.7 934 17232 932.657 17232 931H17231ZM17229 -311V-310C17229.6 -310 17230 -309.552 17230 -309H17231H17232C17232 -310.657 17230.7 -312 17229 -312V-311ZM-3624 -311V-312C-3625.66 -312 -3627 -310.657 -3627 -309H-3626H-3625C-3625 -309.552 -3624.55 -310 -3624 -310V-311Z" fill="white"/>
<g id="Desktop - Board - Light - Empty" clip-path="url(#clip0_0_1)">
<rect width="1440" height="1024" transform="translate(-32 -211)" fill="#F4F7FD"/>
<g id="Side bar (Desktop)">
<rect x="-32" y="-211" width="301" height="1024" fill="white"/>
<rect x="-32" y="-211" width="301" height="1024" stroke="#E4EBFA"/>
<g id="Boards Option (Light) Desktop">
<g id="Frame 2 Copy">
<g id="Group 17" clip-path="url(#clip1_0_1)">
<g id="fluent_board-split-24-regular">
<path id="Shape" fill-rule="evenodd" clip-rule="evenodd" d="M0.846133 0.846133C0.304363 1.3879 0 2.12271 0 2.88889V13.1111C0 13.8773 0.304363 14.6121 0.846133 15.1538C1.3879 15.6957 2.12271 16 2.88889 16H13.1111C13.8773 16 14.6121 15.6957 15.1538 15.1538C15.6957 14.6121 16 13.8773 16 13.1111V2.88889C16 2.12271 15.6957 1.3879 15.1538 0.846133C14.6121 0.304363 13.8773 0 13.1111 0H2.88889C2.12271 0 1.3879 0.304363 0.846133 0.846133ZM1.33333 13.1111V8.44448H9.77781V14.6667H2.88889C2.03022 14.6667 1.33333 13.9698 1.33333 13.1111ZM9.77781 7.11111V1.33333H2.88889C2.47633 1.33333 2.08067 1.49723 1.78895 1.78895C1.49723 2.08067 1.33333 2.47633 1.33333 2.88889V7.11111H9.77781ZM11.1111 5.77778H14.6667V10.2222H11.1111V5.77778ZM14.6667 11.5555H11.1111V14.6667H13.1111C13.5236 14.6667 13.9194 14.5028 14.2111 14.2111C14.5028 13.9194 14.6667 13.5236 14.6667 13.1111V11.5555ZM14.6667 2.88889V4.44445H11.1111V1.33333H13.1111C13.5236 1.33333 13.9194 1.49723 14.2111 1.78895C14.5028 2.08067 14.6667 2.47633 14.6667 2.88889Z" fill="#828FA3"/>
</g>
</g>
</g>
</g>
</g>
</g>
</g>
<defs>
<clipPath id="clip0_0_1">
<rect width="1440" height="1024" fill="white" transform="translate(-32 -211)"/>
</clipPath>
<clipPath id="clip1_0_1">
<rect width="140" height="19" fill="white" transform="translate(0 -2)"/>
</clipPath>
</defs>
</svg>
