<svg width="20" height="20" viewBox="0 0 20 20" fill="none" xmlns="http://www.w3.org/2000/svg">
<path d="M10.0006 16.6665C10.2215 16.6666 10.4334 16.7546 10.5895 16.9106C10.7458 17.0669 10.8336 17.2795 10.8336 17.5005V18.3335C10.8336 18.5544 10.7457 18.7661 10.5895 18.9224C10.4334 19.0786 10.2215 19.1664 10.0006 19.1665C9.7796 19.1665 9.56705 19.0787 9.41077 18.9224C9.2547 18.7661 9.16663 18.5543 9.16663 18.3335V17.5005C9.16663 17.2795 9.2545 17.0669 9.41077 16.9106C9.56705 16.7544 9.7796 16.6665 10.0006 16.6665ZM4.58362 14.5835C4.80451 14.5835 5.01623 14.6715 5.17249 14.8276C5.32862 14.9839 5.41653 15.1956 5.41663 15.4165C5.41663 15.6374 5.32871 15.8501 5.17249 16.0063L3.92249 17.2563C3.76535 17.4079 3.55489 17.4916 3.33655 17.4897C3.11807 17.4878 2.909 17.4001 2.75452 17.2456C2.60012 17.0911 2.51228 16.882 2.51038 16.6636C2.50855 16.4452 2.59302 16.2348 2.74475 16.0776L3.99475 14.8276C4.15101 14.6715 4.36273 14.5835 4.58362 14.5835ZM15.4166 14.5835C15.6376 14.5835 15.8502 14.6714 16.0065 14.8276L17.2565 16.0776C17.4081 16.2347 17.4917 16.4453 17.4899 16.6636C17.488 16.8821 17.4002 17.0911 17.2457 17.2456C17.0912 17.4001 16.8822 17.4878 16.6637 17.4897C16.4453 17.4916 16.2348 17.408 16.0778 17.2563L14.8278 16.0063C14.6716 15.8501 14.5836 15.6374 14.5836 15.4165C14.5837 15.1956 14.6716 14.9839 14.8278 14.8276C14.984 14.6715 15.1958 14.5836 15.4166 14.5835ZM10.0006 5.8335C11.1055 5.83358 12.1656 6.27288 12.9469 7.0542C13.7281 7.83557 14.1666 8.89557 14.1666 10.0005C14.1665 11.1055 13.7282 12.1655 12.9469 12.9468C12.1656 13.7281 11.1055 14.1664 10.0006 14.1665C8.89569 14.1665 7.83569 13.728 7.05432 12.9468C6.273 12.1655 5.83371 11.1055 5.83362 10.0005C5.83362 8.89543 6.27292 7.8356 7.05432 7.0542C7.83572 6.2728 8.89554 5.8335 10.0006 5.8335ZM2.50061 9.1665C2.72143 9.16659 2.93328 9.25454 3.08948 9.41064C3.24576 9.56692 3.33362 9.77948 3.33362 10.0005C3.33353 10.2214 3.24568 10.4332 3.08948 10.5894C2.93327 10.7456 2.72149 10.8334 2.50061 10.8335H1.66663C1.44574 10.8334 1.23396 10.7456 1.07776 10.5894C0.921557 10.4332 0.833706 10.2214 0.833618 10.0005C0.833618 9.77948 0.921479 9.56692 1.07776 9.41064C1.23395 9.25454 1.4458 9.16659 1.66663 9.1665H2.50061ZM18.3336 9.1665C18.5545 9.16651 18.7662 9.25458 18.9225 9.41064C19.0787 9.56692 19.1666 9.77948 19.1666 10.0005C19.1665 10.2214 19.0786 10.4332 18.9225 10.5894C18.7662 10.7455 18.5545 10.8335 18.3336 10.8335H17.5006C17.2796 10.8335 17.0671 10.7457 16.9108 10.5894C16.7546 10.4332 16.6667 10.2213 16.6666 10.0005C16.6666 9.77948 16.7545 9.56692 16.9108 9.41064C17.0671 9.25437 17.2796 9.1665 17.5006 9.1665H18.3336ZM16.6666 2.50049C16.8876 2.50049 17.1002 2.58841 17.2565 2.74463C17.4125 2.90087 17.4996 3.11268 17.4996 3.3335C17.4996 3.55431 17.4125 3.76612 17.2565 3.92236L16.0065 5.17236C15.9296 5.25193 15.8376 5.31618 15.736 5.35986C15.6343 5.40353 15.5244 5.42629 15.4137 5.42725C15.3032 5.42818 15.1937 5.40659 15.0914 5.36475C14.9889 5.32285 14.8953 5.26136 14.817 5.18311C14.739 5.10497 14.6772 5.0119 14.6354 4.90967C14.5935 4.80726 14.5729 4.69708 14.5739 4.58643C14.5749 4.47587 14.5977 4.36673 14.6412 4.26514C14.6849 4.16354 14.7482 4.07146 14.8278 3.99463L16.0778 2.74463C16.234 2.58847 16.4458 2.50056 16.6666 2.50049ZM3.33362 2.50049C3.55459 2.50049 3.76622 2.58841 3.92249 2.74463L5.17249 3.99463C5.32428 4.1518 5.40876 4.36207 5.40686 4.58057C5.40495 4.79904 5.3172 5.00811 5.16272 5.1626C5.00823 5.31709 4.79916 5.40482 4.58069 5.40674C4.3622 5.40864 4.15191 5.32416 3.99475 5.17236L2.74475 3.92236C2.58852 3.76609 2.50061 3.55447 2.50061 3.3335C2.50061 3.11253 2.58852 2.9009 2.74475 2.74463C2.90102 2.58841 3.11265 2.50049 3.33362 2.50049ZM10.0006 0.833496C10.2215 0.833582 10.4334 0.921429 10.5895 1.07764C10.7457 1.23384 10.8335 1.44562 10.8336 1.6665V2.50049C10.8335 2.72138 10.7457 2.93316 10.5895 3.08936C10.4334 3.24556 10.2215 3.33341 10.0006 3.3335C9.7796 3.3335 9.56705 3.24564 9.41077 3.08936C9.25466 2.93317 9.16671 2.72131 9.16663 2.50049V1.6665C9.16671 1.44569 9.25466 1.23383 9.41077 1.07764C9.56705 0.921353 9.7796 0.833496 10.0006 0.833496Z" fill="#828FA3"/>
</svg>
