<svg width="20" height="21" viewBox="0 0 20 21" fill="none" xmlns="http://www.w3.org/2000/svg">
<path d="M16.7181 16.0817C17.6157 15.0018 18.24 13.7215 18.5381 12.3493C18.8363 10.9771 18.7996 9.55322 18.4311 8.19819C18.0625 6.84317 17.3731 5.59683 16.421 4.56461C15.469 3.53239 14.2823 2.74466 12.9614 2.26805C11.6405 1.79144 10.2243 1.63998 8.83248 1.82648C7.44067 2.01298 6.11426 2.53196 4.96545 3.3395C3.81664 4.14704 2.87922 5.2194 2.2325 6.46585C1.58577 7.71231 1.24877 9.09619 1.25 10.5004C1.25053 12.5418 1.96989 14.5178 3.28188 16.0817L3.26938 16.0923C3.31313 16.1448 3.36313 16.1898 3.40813 16.2417C3.46438 16.3061 3.525 16.3667 3.58313 16.4292C3.75729 16.6196 3.93854 16.8009 4.12688 16.9729C4.18521 17.0246 4.24354 17.075 4.30188 17.1242C4.50188 17.2971 4.70813 17.46 4.92063 17.6129C4.94813 17.6317 4.97313 17.6561 5.00063 17.6754V17.6679C6.46441 18.6981 8.21067 19.251 10.0006 19.251C11.7906 19.251 13.5368 18.6981 15.0006 17.6679V17.6754C15.0281 17.6561 15.0525 17.6317 15.0806 17.6129C15.2931 17.4596 15.4994 17.2967 15.6994 17.1242C15.7577 17.0746 15.816 17.0242 15.8744 16.9729C16.0623 16.8009 16.2435 16.6196 16.4181 16.4292C16.4763 16.3667 16.5363 16.3061 16.5931 16.2417C16.6375 16.1898 16.6881 16.1448 16.7319 16.0917L16.7181 16.0817ZM10 5.50043C10.5563 5.50043 11.1 5.66538 11.5625 5.97443C12.0251 6.28347 12.3855 6.72272 12.5984 7.23664C12.8113 7.75055 12.867 8.31605 12.7585 8.86163C12.6499 9.4072 12.3821 9.90834 11.9887 10.3017C11.5954 10.695 11.0943 10.9629 10.5487 11.0714C10.0031 11.1799 9.43762 11.1242 8.92371 10.9113C8.40979 10.6985 7.97054 10.338 7.6615 9.87547C7.35245 9.41296 7.1875 8.86919 7.1875 8.31293C7.1875 7.56701 7.48382 6.85164 8.01127 6.3242C8.53871 5.79675 9.25408 5.50043 10 5.50043ZM5.00438 16.0817C5.01522 15.261 5.34872 14.4777 5.93273 13.901C6.51673 13.3244 7.30429 13.0009 8.125 13.0004H11.875C12.6957 13.0009 13.4833 13.3244 14.0673 13.901C14.6513 14.4777 14.9848 15.261 14.9956 16.0817C13.6249 17.3169 11.8452 18.0005 10 18.0005C8.15484 18.0005 6.3751 17.3169 5.00438 16.0817Z" fill="black"/>
</svg>
